<svg width="139" height="348" xmlns="http://www.w3.org/2000/svg" xmlns:xlink="http://www.w3.org/1999/xlink" xml:space="preserve" overflow="hidden"><g><path d="M10.5513 348C5.69446 340.715 6.60417 330.764 2.9603 323.477 0.270187 318.096-1.01183 306.199 1.20892 299.537 4.4855 289.706 8.01129 281.845 12.3027 273.262 14.7226 268.422 29.1109 268.591 33.9067 268.591 41.6918 268.591 49.4769 268.591 57.2621 268.591 57.8585 268.591 64.0714 268.196 64.2686 268.591 67.1108 274.275 81.2529 272.679 87.625 272.679 89.3413 272.679 92.9422 272.881 94.6315 272.679 108.798 270.983 129.471 278.421 136.087 266.839 138.054 263.396 138.688 247.174 137.255 244.067 133.976 236.958 110.754 245.552 110.582 236.45 110.464 230.215 130.873 238.598 135.264 228.824 142.58 212.54 136.672 185.139 136.672 175.752 136.672 171.557 89.5645 178.599 89.2332 172.085 91.0487 123.25 95.0768 89.1272 94.1291 65.6887 93.8859 59.662 83.6859 66.6074 83.3776 60.7658 93.0032 9.37538 87.8071 23.3554 92.2966 0" stroke="#000000" stroke-width="1.00079" fill="#FFFFFF"/><path d="M83.5378 62.4782C77.8383 62.4782 72.7392 61.8937 67.7723 61.8937" stroke="#000000" stroke-width="1.00079" fill="#FFFFFF"/><path d="M89.3763 174.584C62.0959 174.584 70.1752 139.552 90.5443 139.552" stroke="#000000" stroke-width="1.00079" fill="#FFFFFF"/></g></svg>